<svg width="78" height="65" viewBox="0 0 78 65" fill="none" xmlns="http://www.w3.org/2000/svg">
<g filter="url(#filter0_d_2_133)">
<path fill-rule="evenodd" clip-rule="evenodd" d="M55.7938 2.71761C52.5475 4.75885 51.5886 5.29507 50.8255 5.49618L49.8799 5.7455L44.7897 5.12588C39.08 4.43096 38.2524 4.42231 35.8589 5.03242C35.1034 5.22501 33.9927 5.62807 33.3908 5.92802C32.7889 6.22797 29.4504 8.31345 25.9718 10.5623C19.4775 14.7611 19.1352 15.0266 18.885 16.0609C18.8327 16.2776 18.5568 16.6052 18.2425 16.824C17.9395 17.0349 17.4993 17.4995 17.2642 17.8562C16.4967 19.0204 16.4194 19.5447 16.4194 23.5782V27.2398H10.2097H4V28.3744V29.5089H22.1468C32.1276 29.5089 40.2692 29.5567 40.2393 29.6153C39.2089 31.6313 38.6016 33.2885 38.1992 35.1818C37.8453 36.8469 37.8508 40.4449 38.2098 42.1253C39.8159 49.643 45.5808 55.2661 52.9613 56.5137C62.937 58.2001 72.3048 51.2827 73.7978 41.1279C74.3664 37.261 73.6829 33.6284 71.6317 29.6153C71.6018 29.5567 72.1224 29.5089 72.7887 29.5089H74V28.3744V27.2398H72.0288H70.0578L68.8592 25.9903C65.2511 22.2291 60.2231 20.2103 55.1593 20.4895C54.2278 20.5409 53.2594 20.6201 53.0071 20.6655C52.5745 20.7435 52.5484 20.7244 52.5484 20.3291C52.5484 19.9585 52.6178 19.8893 53.1482 19.7318C54.1941 19.4209 55.8292 18.4789 56.9234 17.5569C57.5055 17.0664 59.8553 15.4929 62.1452 14.0602C64.435 12.6275 66.3864 11.3842 66.4816 11.2972C66.6163 11.1747 66.5274 10.9289 66.0845 10.1981L65.5139 9.25685L63.8648 10.2886C62.9578 10.8562 60.9773 12.0947 59.4637 13.0409C57.9501 13.9872 56.3685 15.0609 55.9489 15.4269C54.6964 16.5197 53.4554 17.259 52.1538 17.6877C51.0279 18.0586 50.7606 18.0912 48.9496 18.0794C47.2929 18.0685 46.6204 17.9918 44.7863 17.6037C42.9345 17.212 42.1655 17.1254 39.7762 17.0389C38.2238 16.9826 36.786 16.8658 36.5812 16.7793C35.8698 16.4791 34.7661 15.2984 34.7661 14.8375C34.7661 14.7945 36.4808 14.7595 38.5766 14.7595H42.3871V13.6249V12.4904H37.7243H33.0614L28.1122 15.2495C22.8992 18.1557 22.2566 18.4235 21.509 18.0018C21.0076 17.719 20.8158 17.1116 21.0813 16.6472C21.278 16.3031 32.7439 8.77352 34.2016 8.03123C35.5627 7.33815 37.6566 6.82107 39.1318 6.81355C39.5638 6.81143 42.1218 7.08004 44.8161 7.41062C51.6016 8.24325 51.0708 8.36423 57.0786 4.61589C59.0502 3.38573 60.7418 2.30761 60.8377 2.21982C60.9738 2.09544 60.8929 1.86584 60.4688 1.1729C60.1701 0.684606 59.9011 0.263397 59.8711 0.236735C59.8411 0.210073 58.0063 1.32649 55.7938 2.71761ZM17.0544 2.44872C16.6759 2.66443 16.6131 2.77292 16.2686 3.80482C15.9134 4.86862 15.3401 5.49674 14.6145 5.61743C13.7331 5.76379 13.3461 5.97284 13.1714 6.39702C12.8287 7.2281 13.3243 7.84346 14.4818 8.02456C15.3091 8.15405 15.8718 8.7548 16.2683 9.93206C16.6284 11.0008 16.9476 11.3558 17.5484 11.3558C18.1444 11.3558 18.4951 10.9851 18.816 10.0163C18.9825 9.5134 19.2524 8.93123 19.4157 8.72261C19.7493 8.29658 20.461 7.95209 21.0079 7.95209C21.5143 7.95209 22.0645 7.36127 22.0645 6.81752C22.0645 6.23421 21.5157 5.68295 20.9349 5.68295C19.9493 5.68295 19.2854 5.03625 18.816 3.61875C18.4118 2.39823 17.8258 2.00907 17.0544 2.44872ZM17.8256 6.59869C17.9602 6.76165 17.9536 6.86659 17.7942 7.09521C17.593 7.38396 17.5913 7.38396 17.3391 7.10386C17.1321 6.87383 17.1184 6.78377 17.2639 6.60749C17.4861 6.33831 17.6089 6.33632 17.8256 6.59869ZM9.12002 13.7961C8.93867 13.8842 8.70778 14.2236 8.57173 14.6021C7.90561 16.4558 7.5995 16.8026 6.4356 17.021C5.75748 17.1483 5.12903 17.6708 5.12903 18.1072C5.12903 18.5545 5.5623 19.1529 5.94306 19.2313C7.49788 19.5515 7.88034 19.8757 8.36413 21.2833C8.71653 22.3084 9.06724 22.7015 9.62935 22.7015C10.2413 22.7015 10.5895 22.338 10.9128 21.362C11.0793 20.8591 11.3492 20.2769 11.5124 20.0683C11.8461 19.6423 12.5578 19.2978 13.1047 19.2978C13.611 19.2978 14.1613 18.707 14.1613 18.1632C14.1613 17.5799 13.6124 17.0287 13.0317 17.0287C12.046 17.0287 11.3822 16.3819 10.9128 14.9644C10.5052 13.7336 9.96919 13.3843 9.12002 13.7961ZM32.6169 15.7257C32.6527 15.8338 32.5043 15.8925 32.2022 15.8895C31.7561 15.8853 31.7461 15.8742 32.0085 15.675C32.3106 15.4454 32.5299 15.4637 32.6169 15.7257ZM9.92234 17.9444C10.057 18.1073 10.0503 18.2123 9.89101 18.4409C9.68976 18.7297 9.68806 18.7297 9.43587 18.4496C9.22883 18.2195 9.21514 18.1295 9.36065 17.9532C9.58292 17.684 9.70571 17.682 9.92234 17.9444ZM35.429 18.6873L36.4841 19.2113L39.4708 19.3145C42.0228 19.4029 42.7556 19.4819 44.504 19.8571C45.8834 20.1531 47.1599 20.3256 48.4204 20.3861L50.2903 20.476V20.9353C50.2903 21.318 50.2258 21.4105 49.9022 21.4912C49.1071 21.6895 46.6515 22.9853 45.4784 23.8257C44.8111 24.3038 43.7076 25.2675 43.0261 25.9674L41.787 27.2398H30.2322H18.6774V23.6162C18.6774 20.5501 18.7127 19.9231 18.907 19.5389C19.2202 18.92 19.2202 18.92 19.4634 19.2687C19.8393 19.8082 20.8707 20.3115 21.7673 20.3932C22.8962 20.496 24.134 20.0962 26.0161 19.0205L27.498 18.1737L30.936 18.1685L34.3739 18.1632L35.429 18.6873ZM39 21.5669V22.7015H40.129H41.2581V21.5669V20.4324H40.129H39V21.5669ZM58.4085 22.9101C64.9931 23.9834 70.0574 28.9287 71.4838 35.6781C71.716 36.7766 71.716 40.3944 71.4838 41.4928C70.1013 48.035 65.3389 52.8208 58.8286 54.2101C57.7356 54.4434 54.1354 54.4434 53.0423 54.2101C48.1371 53.1633 44.2017 50.2361 41.995 45.9927C39.5515 41.2943 39.5154 36.1103 41.8927 31.3535C44.9194 25.2975 51.7212 21.8202 58.4085 22.9101ZM24.3226 24.9706V26.1052H25.4516H26.5806V24.9706V23.8361H25.4516H24.3226V24.9706Z" fill="white"/>
</g>
<defs>
<filter id="filter0_d_2_133" x="0" y="0.236267" width="78" height="64.5306" filterUnits="userSpaceOnUse" color-interpolation-filters="sRGB">
<feFlood flood-opacity="0" result="BackgroundImageFix"/>
<feColorMatrix in="SourceAlpha" type="matrix" values="0 0 0 0 0 0 0 0 0 0 0 0 0 0 0 0 0 0 127 0" result="hardAlpha"/>
<feOffset dy="4"/>
<feGaussianBlur stdDeviation="2"/>
<feComposite in2="hardAlpha" operator="out"/>
<feColorMatrix type="matrix" values="0 0 0 0 0 0 0 0 0 0 0 0 0 0 0 0 0 0 0.25 0"/>
<feBlend mode="normal" in2="BackgroundImageFix" result="effect1_dropShadow_2_133"/>
<feBlend mode="normal" in="SourceGraphic" in2="effect1_dropShadow_2_133" result="shape"/>
</filter>
</defs>
</svg>
