<svg width="57" height="71" viewBox="0 0 57 71" fill="none" xmlns="http://www.w3.org/2000/svg">
<path fill-rule="evenodd" clip-rule="evenodd" d="M2.27388 0.381559C1.58116 0.600975 0.399675 1.83038 0.187258 2.55288C-0.0624194 3.40217 -0.0624194 67.3393 0.187258 68.1886C0.416329 68.9677 1.58554 70.1426 2.36082 70.3728C2.8057 70.5048 7.94463 70.5453 24.3062 70.5453H45.6705L51.0711 65.118L56.4719 59.6909V31.4139C56.4719 9.97868 56.4312 3.0005 56.304 2.57387C56.2117 2.26439 55.8617 1.70429 55.5261 1.32914C54.4209 0.0937805 56.8774 0.19434 28.1833 0.210651C10.0846 0.221005 2.6256 0.270221 2.27388 0.381559ZM53.8671 2.81371L54.2136 3.16177V30.6129V58.064H50.5956C48.1676 58.064 46.7865 58.1207 46.3967 58.2364C45.6214 58.4666 44.4522 59.6416 44.2231 60.4207C44.1079 60.8124 44.0515 62.2002 44.0515 64.6402V68.2759H23.5092H2.96674L2.62038 67.9277L2.27388 67.5797V35.3707V3.16177L2.62038 2.81371L2.96674 2.46551H28.2437H53.5207L53.8671 2.81371ZM20.975 4.9334C19.2559 5.37507 18.8881 5.63207 14.7648 9.27292C12.9794 10.8495 11.328 12.2602 11.0952 12.4078C10.8623 12.5556 10.4494 12.6773 10.1778 12.6783C9.55532 12.6807 8.39825 13.2197 7.86319 13.7563C7.63821 13.9821 7.30032 14.5013 7.11232 14.9103C6.77866 15.6364 6.77175 15.7266 6.81578 18.7398C6.86053 21.8012 6.86405 21.8316 7.25388 22.5751C7.7754 23.5698 8.60446 24.355 9.54812 24.748C10.0495 24.9569 10.3189 25.1525 10.3189 25.3077C10.3189 25.4389 10.5419 25.994 10.8143 26.5413C12.8896 30.71 18.7546 30.7152 20.8281 26.5501C21.1029 25.998 21.3279 25.459 21.3279 25.3525C21.3279 25.192 22.318 25.1588 27.1146 25.1588C31.9113 25.1588 32.9014 25.192 32.9014 25.3525C32.9014 25.459 33.1244 25.994 33.3968 26.5413C35.4721 30.71 41.3371 30.7152 43.4106 26.5501C43.6854 25.998 43.9103 25.459 43.9103 25.3525C43.9103 25.2015 44.2259 25.1588 45.3407 25.1588C46.1274 25.1588 47.0324 25.0812 47.3519 24.9863C48.1272 24.7561 49.2964 23.5812 49.5255 22.8021C49.6384 22.4178 49.6971 21.1021 49.6971 18.9529C49.6971 16.0522 49.6694 15.6537 49.4501 15.3859C49.2649 15.1598 48.2178 14.802 45.2676 13.9565C43.103 13.3361 41.319 12.8107 41.3031 12.7885C41.2871 12.7664 40.3269 11.4091 39.1696 9.77231C38.0121 8.13542 36.8206 6.54944 36.5218 6.24791C36.223 5.94637 35.5561 5.49846 35.0398 5.25267L34.1011 4.80575L27.8909 4.77894C23.2366 4.7588 21.5039 4.79752 20.975 4.9334ZM25.9855 9.7699V12.5356H20.2391C15.357 12.5356 14.5238 12.5063 14.6993 12.3406C15.9042 11.2035 19.9132 7.79034 20.2526 7.61248C21.1709 7.13153 21.8316 7.02302 23.9037 7.01366L25.9855 7.00416V9.7699ZM34.1011 7.3413C34.968 7.75219 35.0486 7.84197 36.9181 10.4791L38.4263 12.6066L34.3584 12.6498C32.1209 12.6735 29.8299 12.6521 29.267 12.6022L28.2437 12.5114V9.75784V7.00416L30.8196 7.00558C33.2305 7.00685 33.4405 7.02827 34.1011 7.3413ZM42.5862 15.5388L44.5786 16.1131L44.3504 16.5583C43.9967 17.2478 44.0508 18.583 44.4592 19.2472C44.9304 20.0134 45.6963 20.4791 46.6472 20.5777L47.4389 20.6598V21.4264C47.4389 22.0513 47.3748 22.2576 47.0924 22.5412C46.7706 22.8648 46.6454 22.8894 45.3281 22.8894C44.224 22.8894 43.9103 22.8466 43.9103 22.6957C43.9103 22.5892 43.6873 22.0542 43.4149 21.5069C42.8128 20.2976 41.9659 19.4782 40.6895 18.8706C39.8369 18.4647 39.6184 18.4217 38.4059 18.4217C37.1933 18.4217 36.9748 18.4647 36.1222 18.8706C34.8459 19.4782 33.9989 20.2976 33.3968 21.5069C33.1244 22.0542 32.9014 22.5892 32.9014 22.6957C32.9014 22.8562 31.9113 22.8894 27.1146 22.8894C22.318 22.8894 21.3279 22.8562 21.3279 22.6957C21.3279 22.5892 21.1049 22.0542 20.8325 21.5069C20.2303 20.2976 19.3834 19.4782 18.107 18.8706C17.2544 18.4647 17.0359 18.4217 15.8234 18.4217C14.6108 18.4217 14.3924 18.4647 13.5397 18.8706C13.0213 19.1174 12.3156 19.5801 11.9718 19.8985C11.3532 20.4715 10.46 21.936 10.46 22.3774C10.46 22.68 10.2914 22.6655 9.86188 22.3259C9.32738 21.9034 9.04863 21.1813 9.04863 20.219V19.3645L9.80175 19.0178C11.1849 18.3816 12.1764 17.0146 12.385 15.4565L12.4782 14.7609L26.5358 14.8625L40.5935 14.9644L42.5862 15.5388ZM10.1237 15.3958C10.0291 15.8711 9.40868 16.7906 9.18257 16.7906C9.00981 16.7906 9.01024 16.2015 9.18328 15.744C9.2904 15.4609 9.88093 14.9824 10.1601 14.9525C10.1892 14.9494 10.1728 15.1489 10.1237 15.3958ZM16.9525 17.2161V18.3508H18.6462H20.3399V17.2161V16.0815H18.6462H16.9525V17.2161ZM30.502 17.2161V18.3508H32.1957H33.8894V17.2161V16.0815H32.1957H30.502V17.2161ZM47.4389 17.7835C47.4389 18.3102 47.4106 18.3508 47.0437 18.3508C46.6018 18.3508 46.3097 18.125 46.3097 17.7835C46.3097 17.4419 46.6018 17.2161 47.0437 17.2161C47.4106 17.2161 47.4389 17.2567 47.4389 17.7835ZM16.8656 20.7926C18.0785 21.1527 19.2107 22.7129 19.2107 24.0241C19.2107 25.7815 17.5722 27.4281 15.8234 27.4281C14.0745 27.4281 12.436 25.7815 12.436 24.0241C12.436 23.1327 12.7589 22.4134 13.4898 21.6775C14.4799 20.6804 15.5463 20.4008 16.8656 20.7926ZM39.448 20.7926C40.661 21.1527 41.7932 22.7129 41.7932 24.0241C41.7932 25.7815 40.1547 27.4281 38.4059 27.4281C36.657 27.4281 35.0185 25.7815 35.0185 24.0241C35.0185 23.1327 35.3414 22.4134 36.0722 21.6775C37.0623 20.6804 38.1288 20.4008 39.448 20.7926ZM14.6943 24.0241V25.1588H15.8234H16.9525V24.0241V22.8894H15.8234H14.6943V24.0241ZM37.2767 24.0241V25.1588H38.4059H39.535V24.0241V22.8894H38.4059H37.2767V24.0241ZM38.2647 32.7468L36.7878 34.2361H33.4267H30.0657L29.7194 34.5843L29.3729 34.9323V38.7747V42.6171L29.7194 42.9652L30.0657 43.3134H33.8894H37.713L38.0594 42.9652L38.4059 42.6171V39.2396V35.862L39.8878 34.3779C40.7029 33.5616 41.3698 32.8264 41.3698 32.744C41.3698 32.5562 40.0686 31.2576 39.8805 31.2576C39.8041 31.2576 39.077 31.9277 38.2647 32.7468ZM18.0816 36.5054V37.64H22.5981H27.1146V36.5054V35.3707H22.5981H18.0816V36.5054ZM42.9224 36.5054V37.64H47.4389H51.9554V36.5054V35.3707H47.4389H42.9224V36.5054ZM33.8487 37.1839C33.483 37.5572 33.1906 37.9241 33.1989 37.9995C33.2072 38.0748 33.5587 38.4512 33.9797 38.8358L34.7452 39.5352L35.4464 38.8412L36.1476 38.1471V39.5956V41.044H33.8894H31.6311V38.7747V36.5054H33.0724H34.5139L33.8487 37.1839ZM15.8234 41.044V42.1787H21.469H27.1146V41.044V39.9094H21.469H15.8234V41.044ZM40.6641 41.044V42.1787H46.3097H51.9554V41.044V39.9094H46.3097H40.6641V41.044ZM13.424 44.0934L11.9471 45.5827H8.58597H5.22499L4.87863 45.9309L4.53213 46.2789V50.1213V53.9637L4.87863 54.3118L5.22499 54.66H9.04863H12.8723L13.2186 54.3118L13.5651 53.9637V50.5863V47.2087L15.0471 45.7245C15.8622 44.9083 16.5291 44.173 16.5291 44.0906C16.5291 43.9028 15.2279 42.6042 15.0398 42.6042C14.9634 42.6042 14.2362 43.2744 13.424 44.0934ZM38.2647 44.0934L36.7878 45.5827H33.4267H30.0657L29.7194 45.9309L29.3729 46.2789V50.1213V53.9637L29.7194 54.3118L30.0657 54.66H33.8894H37.713L38.0594 54.3118L38.4059 53.9637V50.5863V47.2087L39.8878 45.7245C40.7029 44.9083 41.3698 44.173 41.3698 44.0906C41.3698 43.9028 40.0686 42.6042 39.8805 42.6042C39.8041 42.6042 39.077 43.2744 38.2647 44.0934ZM18.0816 47.852V48.9867H22.5981H27.1146V47.852V46.7174H22.5981H18.0816V47.852ZM42.9224 47.852V48.9867H47.4389H51.9554V47.852V46.7174H47.4389H42.9224V47.852ZM9.00798 48.5305C8.64228 48.9038 8.34984 49.2708 8.35817 49.3461C8.3665 49.4214 8.71793 49.7978 9.13896 50.1825L9.9045 50.8818L10.6057 50.1879L11.3069 49.4937V50.9423V52.3907H9.04863H6.79038V50.1213V47.852H8.23171H9.67317L9.00798 48.5305ZM33.8487 48.5305C33.483 48.9038 33.1906 49.2708 33.1989 49.3461C33.2072 49.4214 33.5587 49.7978 33.9797 50.1825L34.7452 50.8818L35.4464 50.1879L36.1476 49.4937V50.9423V52.3907H33.8894H31.6311V50.1213V47.852H33.0724H34.5139L33.8487 48.5305ZM15.8234 52.3907V53.5253H21.469H27.1146V52.3907V51.256H21.469H15.8234V52.3907ZM40.6641 52.3907V53.5253H46.3097H51.9554V52.3907V51.256H46.3097H40.6641V52.3907ZM13.424 55.4401L11.9471 56.9293H8.58597H5.22499L4.87863 57.2775L4.53213 57.6256V61.468V65.3104L4.87863 65.6584L5.22499 66.0066H9.04863H12.8723L13.2186 65.6584L13.5651 65.3104V61.9329V58.5553L15.0471 57.0711C15.8622 56.2549 16.5291 55.5196 16.5291 55.4372C16.5291 55.2494 15.2279 53.9508 15.0398 53.9508C14.9634 53.9508 14.2362 54.621 13.424 55.4401ZM18.0816 59.1986V60.3333H22.5981H27.1146V59.1986V58.064H22.5981H18.0816V59.1986ZM9.00798 59.8772C8.64228 60.2505 8.34984 60.6174 8.35817 60.6927C8.3665 60.768 8.71793 61.1444 9.13896 61.5291L9.9045 62.2285L10.6057 61.5345L11.3069 60.8404V62.2889V63.7373H9.04863H6.79038V61.468V59.1986H8.23171H9.67317L9.00798 59.8772ZM52.5199 60.37C52.5199 60.3902 51.1226 61.8096 49.4148 63.5245L46.3097 66.6424V63.836C46.3097 60.0692 46.0495 60.3333 49.7613 60.3333C51.2786 60.3333 52.5199 60.3498 52.5199 60.37ZM15.8234 63.7373V64.872H21.469H27.1146V63.7373V62.6026H21.469H15.8234V63.7373Z" fill="white"/>
</svg>
