<svg width="70" height="46" viewBox="0 0 70 46" fill="none" xmlns="http://www.w3.org/2000/svg">
<path fill-rule="evenodd" clip-rule="evenodd" d="M15.0028 0.348305C14.8122 0.539837 14.6562 0.788686 14.6562 0.901477C14.6562 1.0696 14.2321 1.11684 12.2914 1.16494C9.63559 1.23077 9.03316 1.3857 7.7498 2.33244C6.34136 3.37139 6.20978 3.67855 2.93122 13.573C0.109959 22.0872 -0.0576255 22.6521 0.0111307 23.4139C0.150902 24.9633 1.02398 26.2467 2.3607 26.868C2.96002 27.1466 3.28714 27.1724 6.72622 27.2133C10.6714 27.2601 10.9883 27.2144 11.1804 26.57C11.2218 26.4313 11.6724 23.1686 12.1821 19.3195C12.6916 15.4704 13.1933 12.1176 13.2966 11.8687C13.4001 11.62 13.7324 11.1978 14.0351 10.9304L14.5856 10.4442L14.682 13.0608C14.8458 17.5023 15.3144 23.1859 15.7259 25.725C15.8133 26.2637 15.8173 26.2666 16.3645 26.1861C18.2058 25.9151 18.0677 25.9686 17.9843 25.5592C17.6733 24.0327 17.1438 17.7965 16.9737 13.6555L16.879 11.35H18.6395H20.4L20.5606 11.8885C20.7926 12.6669 21.6052 13.545 22.501 13.9854C23.3738 14.4146 23.6919 14.778 23.6919 15.3463C23.6919 15.8729 23.1941 16.3689 22.3611 16.6724C21.5447 16.9697 20.6194 17.848 20.2699 18.6566C19.9847 19.3167 15.9624 37.4164 15.8334 38.6198C15.5145 41.5971 17.7348 44.6197 20.6987 45.2429C21.7522 45.4643 43.7176 45.4622 44.7566 45.2406C47.7432 44.6033 49.9424 41.6106 49.6219 38.6198C49.4458 36.9778 45.436 19.2477 45.0675 18.4821C44.6531 17.6215 43.9387 16.9773 43.0357 16.65C41.9106 16.2421 41.4578 15.3985 41.9696 14.6641C42.0831 14.5012 42.5262 14.1959 42.9542 13.9854C44.2351 13.3557 45.1518 11.9834 45.1518 10.6959C45.1518 10.3507 45.227 10.2102 45.4497 10.1391C45.6136 10.0869 46.9516 9.3164 48.423 8.42713L51.0984 6.81003H60.2027H69.3069L69.6534 6.46173C69.9972 6.1164 70 6.09157 70 3.40501C70 0.718458 69.9972 0.69363 69.6534 0.348305L69.3069 0H57.0111H44.7154L44.3689 0.348305C44.1783 0.539837 44.0223 0.795213 44.0223 0.915807C44.0223 1.11174 42.8208 1.135 32.7276 1.135C22.6345 1.135 21.433 1.11174 21.433 0.915807C21.433 0.795213 21.277 0.539837 21.0864 0.348305C20.7427 0.00283778 20.718 0 18.0446 0C15.3712 0 15.3464 0.00283778 15.0028 0.348305ZM19.1741 5.67502V9.08004H18.0446H16.9151V5.67502V2.27001H18.0446H19.1741V5.67502ZM60.9643 3.40501V4.54002H55.7257H50.4871L48.3841 5.81193L46.2812 7.08385V4.67693V2.27001H53.6228H60.9643V3.40501ZM67.7411 3.40501V4.54002H65.4821H63.2232V3.40501V2.27001H65.4821H67.7411V3.40501ZM14.6562 5.71986V8.0347L13.8444 8.37208C12.8732 8.77572 11.7436 9.8561 11.3049 10.8008C11.0415 11.3684 10.9271 11.4714 10.4633 11.5586C9.01424 11.8312 7.16008 13.2293 6.40913 14.6159C6.14017 15.1126 5.63177 16.8663 4.83974 20.0299C4.19538 22.6036 3.63121 24.7465 3.58603 24.7918C3.54085 24.8372 3.34475 24.8014 3.15006 24.7123C2.71874 24.5148 2.23335 23.7504 2.23265 23.2676C2.23194 22.797 7.94492 5.58891 8.29152 5.01757C8.62754 4.46383 9.40687 3.85703 10.1028 3.60747C10.4471 3.4839 11.3364 3.41523 12.6443 3.41126L14.6562 3.40501V5.71986ZM22.5625 4.54002V5.67502H23.6919H24.8214V4.54002V3.40501H25.9509H27.0803V4.54002V5.67502H28.2098H29.3392V4.54002V3.40501H30.4687H31.5982V4.54002V5.67502H32.7276H33.8571V4.54002V3.40501H34.9866H36.116V4.54002V5.67502H37.2455H38.375V4.54002V3.40501H39.5044H40.6339V4.54002V5.67502H41.7634H42.8928V4.54002V3.40501H43.4576H44.0223V5.67502V7.94503H32.7276H21.433V5.67502V3.40501H21.9977H22.5625V4.54002ZM42.8928 10.6215C42.8928 11.1947 42.449 11.6942 41.4775 12.2146C39.8365 13.0936 39.1292 14.7857 39.7107 16.442C40.0569 17.4277 40.5887 17.9857 41.69 18.5179C42.8513 19.0793 43.1354 19.3432 43.2617 19.9784L43.3517 20.4301H32.7276H22.1036L22.1935 19.9784C22.3199 19.3432 22.604 19.0793 23.7653 18.5179C24.8666 17.9857 25.3984 17.4277 25.7446 16.442C26.3261 14.7857 25.6188 13.0936 23.9778 12.2146C23.0063 11.6942 22.5625 11.1947 22.5625 10.6215V10.215H32.7276H42.8928V10.6215ZM10.5606 14.1521C10.5601 14.2887 10.243 16.7626 9.85597 19.6498C9.46899 22.5369 9.15189 24.9152 9.15133 24.9346C9.15062 24.9541 8.42607 24.9701 7.54128 24.9701H5.93249L7.02779 20.5991C7.63022 18.1948 8.20568 16.0721 8.30649 15.8817C8.67018 15.1956 9.08539 14.7308 9.70109 14.3211C10.4272 13.8377 10.5623 13.8112 10.5606 14.1521ZM43.9294 23.0193C43.9727 23.195 44.7792 26.818 45.7216 31.0708C47.579 39.4533 47.6027 39.6374 46.9836 40.8775C46.5629 41.7208 46.062 42.234 45.2224 42.6823L44.5164 43.0593H32.7276H20.9389L20.3577 42.7468C19.4477 42.2577 18.9078 41.734 18.5195 40.964C17.8461 39.6284 17.8567 39.5419 19.7337 31.0708C20.6761 26.818 21.4825 23.195 21.5259 23.0193L21.6048 22.7001H32.7276H43.8505L43.9294 23.0193Z" fill="white"/>
</svg>
